<?xml version="1.0" standalone="no"?><!DOCTYPE svg PUBLIC "-//W3C//DTD SVG 1.1//EN" "http://www.w3.org/Graphics/SVG/1.1/DTD/svg11.dtd"><svg t="1631521214271" class="icon" viewBox="0 0 1024 1024" version="1.1" xmlns="http://www.w3.org/2000/svg" p-id="17535" xmlns:xlink="http://www.w3.org/1999/xlink" width="128" height="128"><defs><style type="text/css"></style></defs><path d="M895.2 688.7H130c-32.6 0-59.1-26.5-59.1-59.1V205.8c0-32.6 26.5-59.1 59.1-59.1h765.1c32.6 0 59.1 26.5 59.1 59.1v423.8c0.1 32.6-26.4 59.1-59 59.1z m0-59.1v29.6-29.6zM130 205.8v423.8h765l0.1-423.8H130z" fill="#000000" p-id="17536"></path><path d="M767.2 688.7c-16.3 0-29.6-13.2-29.6-29.6V593c-1.1-0.5-2.8-1-5.2-1H292.8c-2.4 0-4.1 0.5-5.2 1v66.2c0 16.3-13.2 29.6-29.6 29.6s-29.6-13.2-29.6-29.6v-69.6c0-31.3 28.8-56.7 64.3-56.7h439.7c35.5 0 64.3 25.4 64.3 56.7v69.6c0.1 16.3-13.2 29.5-29.5 29.5zM786.8 324.7c-19.8 0-35.8-16-35.8-35.8 0-19.8 16-35.8 35.8-35.8 19.8 0 35.8 16 35.8 35.8 0 19.7-16 35.8-35.8 35.8zM184.4 855.4c-5.3 0-10.6-1.4-15.4-4.3-13.9-8.5-18.3-26.7-9.8-40.6l53.2-87.2c8.5-13.9 26.7-18.3 40.6-9.8 13.9 8.5 18.3 26.7 9.8 40.6l-53.2 87.2c-5.5 9-15.3 14.1-25.2 14.1zM385.4 855.4c-5.3 0-10.6-1.4-15.4-4.3-13.9-8.5-18.3-26.7-9.8-40.6l53.2-87.2c8.5-13.9 26.7-18.3 40.6-9.8 13.9 8.5 18.3 26.7 9.8 40.6l-53.2 87.2c-5.5 9-15.2 14.1-25.2 14.1zM586.5 855.4c-5.3 0-10.6-1.4-15.4-4.3-13.9-8.5-18.3-26.7-9.8-40.6l53.2-87.2c8.5-13.9 26.7-18.3 40.6-9.8 13.9 8.5 18.3 26.7 9.8 40.6l-53.2 87.2c-5.5 9-15.3 14.1-25.2 14.1zM787.5 855.4c-5.3 0-10.6-1.4-15.4-4.3-13.9-8.5-18.3-26.7-9.8-40.6l53.2-87.2c8.5-13.9 26.7-18.3 40.6-9.8 13.9 8.5 18.3 26.7 9.8 40.6l-53.2 87.2c-5.5 9-15.2 14.1-25.2 14.1z" fill="#000000" p-id="17537"></path></svg>