<?xml version="1.0" standalone="no"?><!DOCTYPE svg PUBLIC "-//W3C//DTD SVG 1.1//EN" "http://www.w3.org/Graphics/SVG/1.1/DTD/svg11.dtd"><svg t="1631521258916" class="icon" viewBox="0 0 1024 1024" version="1.1" xmlns="http://www.w3.org/2000/svg" p-id="19208" xmlns:xlink="http://www.w3.org/1999/xlink" width="128" height="128"><defs><style type="text/css"></style></defs><path d="M502.328889 754.915556c-83.626667 0-162.133333-32.616296-221.297778-91.780741-59.06963-59.164444-91.591111-137.860741-91.591111-221.582222 0-83.721481 32.521481-162.417778 91.591111-221.582223 59.06963-59.164444 137.671111-91.780741 221.297778-91.78074s162.133333 32.616296 221.297778 91.78074c59.06963 59.164444 91.591111 137.860741 91.591111 221.582223 0 83.721481-32.521481 162.417778-91.591111 221.582222-59.164444 59.164444-137.765926 91.780741-221.297778 91.780741z m0-584.248889c-148.954074 0-270.222222 121.457778-270.222222 270.791111s121.268148 270.791111 270.222222 270.791111 270.222222-121.457778 270.222222-270.791111S651.282963 170.666667 502.328889 170.666667z" p-id="19209" fill="#000000"></path><path d="M502.328889 653.653333C413.392593 653.653333 341.048889 581.214815 341.048889 492.088889c0-89.031111 72.343704-161.564444 161.28-161.564445S663.608889 403.057778 663.608889 492.088889s-72.343704 161.564444-161.28 161.564444z m0-280.462222c-65.422222 0-118.613333 53.285926-118.613333 118.897778s53.191111 118.897778 118.613333 118.897778S620.942222 557.700741 620.942222 492.088889s-53.191111-118.897778-118.613333-118.897778zM706.37037 896H298.192593c-11.757037 0-21.333333-9.576296-21.333334-21.333333s9.576296-21.333333 21.333334-21.333334H706.37037c11.757037 0 21.333333 9.576296 21.333334 21.333334S718.127407 896 706.37037 896z" p-id="19210" fill="#000000"></path><path d="M681.244444 896H323.318519l82.868148-181.57037c4.93037-10.714074 17.540741-15.454815 28.254814-10.524445 10.714074 4.93037 15.454815 17.540741 10.524445 28.254815L389.688889 853.333333h225.185185l-55.277037-121.173333c-4.93037-10.714074-0.18963-23.419259 10.524444-28.254815 10.714074-4.93037 23.419259-0.18963 28.254815 10.524445L681.244444 896z" p-id="19211" fill="#000000"></path><path d="M502.328889 271.075556m-34.133333 0a34.133333 34.133333 0 1 0 68.266666 0 34.133333 34.133333 0 1 0-68.266666 0Z" p-id="19212" fill="#000000"></path></svg>