<?xml version="1.0" standalone="no"?><!DOCTYPE svg PUBLIC "-//W3C//DTD SVG 1.1//EN" "http://www.w3.org/Graphics/SVG/1.1/DTD/svg11.dtd"><svg t="1631521330738" class="icon" viewBox="0 0 1024 1024" version="1.1" xmlns="http://www.w3.org/2000/svg" p-id="21288" xmlns:xlink="http://www.w3.org/1999/xlink" width="128" height="128"><defs><style type="text/css"></style></defs><path d="M901.12 101.376H122.88c-33.792 0-61.44 27.648-61.44 61.44v696.32c0 33.792 27.648 61.44 61.44 61.44h778.24c33.792 0 61.44-27.648 61.44-61.44v-696.32c0-33.792-27.648-61.44-61.44-61.44z m-266.24 40.96v737.28H389.12v-737.28h245.76z m-532.48 716.8v-696.32c0-11.264 9.216-20.48 20.48-20.48h225.28v737.28H122.88c-11.264 0-20.48-9.216-20.48-20.48z m819.2 0c0 11.264-9.216 20.48-20.48 20.48H675.84v-737.28h225.28c11.264 0 20.48 9.216 20.48 20.48v696.32z" p-id="21289" fill="#000000"></path><path d="M225.28 244.736m-40.96 0a40.96 40.96 0 1 0 81.92 0 40.96 40.96 0 1 0-81.92 0Z" p-id="21290" fill="#000000"></path><path d="M225.28 367.616m-40.96 0a40.96 40.96 0 1 0 81.92 0 40.96 40.96 0 1 0-81.92 0Z" p-id="21291" fill="#000000"></path><path d="M184.32 654.336h81.92c11.264 0 20.48-9.216 20.48-20.48s-9.216-20.48-20.48-20.48h-81.92c-11.264 0-20.48 9.216-20.48 20.48s9.216 20.48 20.48 20.48zM266.24 695.296h-81.92c-11.264 0-20.48 9.216-20.48 20.48s9.216 20.48 20.48 20.48h81.92c11.264 0 20.48-9.216 20.48-20.48s-9.216-20.48-20.48-20.48zM266.24 777.216h-81.92c-11.264 0-20.48 9.216-20.48 20.48s9.216 20.48 20.48 20.48h81.92c11.264 0 20.48-9.216 20.48-20.48s-9.216-20.48-20.48-20.48z" p-id="21292" fill="#000000"></path><path d="M512 244.736m-40.96 0a40.96 40.96 0 1 0 81.92 0 40.96 40.96 0 1 0-81.92 0Z" p-id="21293" fill="#000000"></path><path d="M512 367.616m-40.96 0a40.96 40.96 0 1 0 81.92 0 40.96 40.96 0 1 0-81.92 0Z" p-id="21294" fill="#000000"></path><path d="M471.04 654.336h81.92c11.264 0 20.48-9.216 20.48-20.48s-9.216-20.48-20.48-20.48h-81.92c-11.264 0-20.48 9.216-20.48 20.48s9.216 20.48 20.48 20.48zM471.04 736.256h81.92c11.264 0 20.48-9.216 20.48-20.48s-9.216-20.48-20.48-20.48h-81.92c-11.264 0-20.48 9.216-20.48 20.48s9.216 20.48 20.48 20.48zM552.96 777.216h-81.92c-11.264 0-20.48 9.216-20.48 20.48s9.216 20.48 20.48 20.48h81.92c11.264 0 20.48-9.216 20.48-20.48s-9.216-20.48-20.48-20.48z" p-id="21295" fill="#000000"></path><path d="M798.72 244.736m-40.96 0a40.96 40.96 0 1 0 81.92 0 40.96 40.96 0 1 0-81.92 0Z" p-id="21296" fill="#000000"></path><path d="M798.72 367.616m-40.96 0a40.96 40.96 0 1 0 81.92 0 40.96 40.96 0 1 0-81.92 0Z" p-id="21297" fill="#000000"></path><path d="M839.68 613.376h-81.92c-11.264 0-20.48 9.216-20.48 20.48s9.216 20.48 20.48 20.48h81.92c11.264 0 20.48-9.216 20.48-20.48s-9.216-20.48-20.48-20.48zM839.68 695.296h-81.92c-11.264 0-20.48 9.216-20.48 20.48s9.216 20.48 20.48 20.48h81.92c11.264 0 20.48-9.216 20.48-20.48s-9.216-20.48-20.48-20.48zM839.68 777.216h-81.92c-11.264 0-20.48 9.216-20.48 20.48s9.216 20.48 20.48 20.48h81.92c11.264 0 20.48-9.216 20.48-20.48s-9.216-20.48-20.48-20.48z" p-id="21298" fill="#000000"></path></svg>