<?xml version="1.0" standalone="no"?><!DOCTYPE svg PUBLIC "-//W3C//DTD SVG 1.1//EN" "http://www.w3.org/Graphics/SVG/1.1/DTD/svg11.dtd"><svg t="1631520751869" class="icon" viewBox="0 0 1024 1024" version="1.1" xmlns="http://www.w3.org/2000/svg" p-id="3029" xmlns:xlink="http://www.w3.org/1999/xlink" width="128" height="128"><defs><style type="text/css"></style></defs><path d="M920.48 195.3H103.52c-11.05 0-20-8.95-20-20s8.95-20 20-20h816.95c11.05 0 20 8.95 20 20s-8.95 20-19.99 20zM920.48 881.55H103.52c-11.05 0-20-8.95-20-20s8.95-20 20-20h816.95c11.05 0 20 8.95 20 20s-8.95 20-19.99 20z" fill="#000000" p-id="3030"></path><path d="M527.96 869.41c-11.05 0-20-8.95-20-20V200.3c0-11.05 8.95-20 20-20s20 8.95 20 20v649.11c0 11.04-8.96 20-20 20zM128.51 869.41c-11.05 0-20-8.95-20-20V200.3c0-11.05 8.95-20 20-20s20 8.95 20 20v649.11c0 11.04-8.95 20-20 20zM877.48 869.41c-11.05 0-20-8.95-20-20V200.3c0-11.05 8.95-20 20-20s20 8.95 20 20v649.11c0 11.04-8.96 20-20 20zM261.63 441.56c-5.12 0-10.24-1.95-14.14-5.86-7.81-7.81-7.81-20.47 0-28.29l37.11-37.11c21.49-21.49 56.46-21.49 77.96 0l37.04 37.04c7.81 7.81 7.81 20.47 0 28.29s-20.47 7.81-28.28 0l-37.04-37.04c-5.9-5.9-15.49-5.9-21.39 0l-37.11 37.11a19.96 19.96 0 0 1-14.15 5.86z" fill="#000000" p-id="3031"></path><path d="M322.86 635.81c-11.05 0-20-8.95-20-20V384.06c0-11.05 8.95-20 20-20s20 8.95 20 20v231.75c0 11.04-8.95 20-20 20zM683.02 621.35c-14.12 0-28.23-5.37-38.98-16.12l-37.11-37.11c-7.81-7.81-7.81-20.47 0-28.29s20.47-7.81 28.28 0l37.11 37.11c5.9 5.9 15.49 5.89 21.39 0l37.04-37.04c7.81-7.81 20.47-7.81 28.28 0s7.81 20.47 0 28.28L722 605.23c-10.75 10.75-24.87 16.12-38.98 16.12z" fill="#000000" p-id="3032"></path><path d="M682.34 611.45c-11.05 0-20-8.95-20-20V359.7c0-11.05 8.95-20 20-20s20 8.95 20 20v231.75c0 11.04-8.95 20-20 20z" fill="#000000" p-id="3033"></path></svg>