<?xml version="1.0" standalone="no"?><!DOCTYPE svg PUBLIC "-//W3C//DTD SVG 1.1//EN" "http://www.w3.org/Graphics/SVG/1.1/DTD/svg11.dtd"><svg t="1631520878679" class="icon" viewBox="0 0 1024 1024" version="1.1" xmlns="http://www.w3.org/2000/svg" p-id="4743" xmlns:xlink="http://www.w3.org/1999/xlink" width="128" height="128"><defs><style type="text/css"></style></defs><path d="M512.1 507.25c-28.88 0-52.29 23.41-52.29 52.29 0 17.05 8.29 32.05 20.92 41.6v59.98c0 17.33 14.05 31.37 31.37 31.37s31.37-14.05 31.37-31.37v-59.98c12.63-9.55 20.92-24.54 20.92-41.6 0-28.88-23.41-52.29-52.29-52.29z" p-id="4744"></path><path d="M926.91 869.5H868.1V172.27c0-44.25-36.01-80.27-80.27-80.27H236.36c-44.25 0-80.27 36.01-80.27 80.27V869.5h-58.8c-16.67 0-30.19 13.51-30.19 30.19v2.38c0 16.67 13.52 30.19 30.19 30.19h829.62c16.67 0 30.19-13.52 30.19-30.19v-2.38c0-16.68-13.52-30.19-30.19-30.19z m-708.06 0V172.27c0-9.66 7.85-17.52 17.52-17.52h551.47c9.66 0 17.52 7.85 17.52 17.52V869.5H218.85z" p-id="4745"></path><path d="M655.94 424.66v-26.7c0-79.74-64.53-144.63-143.84-144.63s-143.84 64.88-143.84 144.63v26.69c-48.47 3.93-86.88 44.45-86.88 94.09v154.82c0.19 52.11 42.55 94.5 94.41 94.5h273.32c51.51-0.38 93.55-42.79 93.72-94.64V518.75c-0.01-49.62-38.37-90.11-86.89-94.09zM512.1 316.08c44.71 0 81.09 36.73 81.09 81.88v25.93H431.01v-25.93c0-45.15 36.37-81.88 81.09-81.88z m167.97 357.25c-0.06 17.47-14.1 31.8-31.34 31.99H375.78c-17.39 0-31.59-14.35-31.66-31.88v-154.7c0-17.64 14.16-32.04 31.44-32.1h272.97c17.39 0.06 31.55 14.46 31.55 32.1v154.59z" p-id="4746"></path></svg>