<?xml version="1.0" standalone="no"?><!DOCTYPE svg PUBLIC "-//W3C//DTD SVG 1.1//EN" "http://www.w3.org/Graphics/SVG/1.1/DTD/svg11.dtd"><svg t="1631520903896" class="icon" viewBox="0 0 1024 1024" version="1.1" xmlns="http://www.w3.org/2000/svg" p-id="5688" xmlns:xlink="http://www.w3.org/1999/xlink" width="128" height="128"><defs><style type="text/css"></style></defs><path d="M780.6 847h-99.8V665.9h36.7c26 0 47.2-21.2 47.2-47.2V508.6c0-26-21.2-47.2-47.2-47.2h-36.7v-61.5H762c13.8 0 25-11.2 25-25s-11.2-25-25-25h-55c-10.4-41.3-33.3-78.7-65.8-107.1-14.4-12.6-30.4-23.1-47.4-31.2V152c0-13.8-11.2-25-25-25H436.6c-13.8 0-25 11.2-25 25v59.6c-17 8.2-33 18.6-47.4 31.2-32.5 28.3-55.3 65.8-65.8 107.1h-55c-13.8 0-25 11.2-25 25s11.2 25 25 25h81.2v61.5h-36.3c-26.3 0-47.7 21.4-47.7 47.7v109.2c0 26.3 21.4 47.7 47.7 47.7h36.3v181h-59.7c-13.8 0-25 11.2-25 25s11.2 25 25 25h515.6c13.8 0 25-11.2 25-25s-11.1-25-24.9-25z m-65.8-335.6V616h-34V511.4h34zM461.6 177h82.3v18c-13.5-2.7-27.2-4.1-41.1-4.1-13.9 0-27.7 1.4-41.1 4.1v-18zM397 280.5c29.3-25.5 66.8-39.6 105.7-39.6 38.9 0 76.4 14.1 105.7 39.6 21.5 18.8 37.5 42.8 46.5 69.4H350.5c9-26.6 25-50.6 46.5-69.4zM290.7 615.9V511.4h34V616h-34z m84 231.1V399.9h256.1V847H374.7z" p-id="5689" fill="#000000"></path><path d="M551.8 430.2c-13.8 0-25 11.2-25 25v331.4c0 13.8 11.2 25 25 25s25-11.2 25-25V455.2c0-13.8-11.2-25-25-25zM453.7 430.2c-13.8 0-25 11.2-25 25v331.4c0 13.8 11.2 25 25 25s25-11.2 25-25V455.2c0-13.8-11.2-25-25-25z" p-id="5690" fill="#000000"></path></svg>