<?xml version="1.0" standalone="no"?><!DOCTYPE svg PUBLIC "-//W3C//DTD SVG 1.1//EN" "http://www.w3.org/Graphics/SVG/1.1/DTD/svg11.dtd"><svg t="1631520624719" class="icon" viewBox="0 0 1024 1024" version="1.1" xmlns="http://www.w3.org/2000/svg" p-id="2199" width="128" height="128" xmlns:xlink="http://www.w3.org/1999/xlink"><defs><style type="text/css"></style></defs><path d="M341.317818 398.242909H113.757091A114.129455 114.129455 0 0 1 0 284.392727V113.757091C0 51.2 51.2 0 113.757091 0h227.607273c62.557091 0 113.757091 51.2 113.757091 113.757091v170.682182c0 62.603636-51.2 113.803636-113.803637 113.803636z m0 625.757091H113.757091A114.129455 114.129455 0 0 1 0 910.242909v-284.485818C0 563.2 51.2 512 113.757091 512h227.607273c62.557091 0 113.757091 51.2 113.757091 113.757091v284.485818C455.121455 972.8 403.921455 1024 341.317818 1024z m568.925091-512h-227.607273a114.129455 114.129455 0 0 1-113.757091-113.757091V113.757091C568.878545 51.2 620.078545 0 682.682182 0h227.560727C972.8 0 1024 51.2 1024 113.757091v284.485818C1024 460.8 972.8 512 910.242909 512z m0 512h-227.607273a114.129455 114.129455 0 0 1-113.757091-113.757091v-170.682182c0-62.603636 51.2-113.803636 113.803637-113.803636h227.560727c62.557091 0 113.757091 51.2 113.757091 113.803636v170.682182C1024 972.8 972.8 1024 910.242909 1024z" p-id="2200" fill="#000000"></path></svg>