<?xml version="1.0" standalone="no"?><!DOCTYPE svg PUBLIC "-//W3C//DTD SVG 1.1//EN" "http://www.w3.org/Graphics/SVG/1.1/DTD/svg11.dtd"><svg t="1631520932691" class="icon" viewBox="0 0 1024 1024" version="1.1" xmlns="http://www.w3.org/2000/svg" p-id="6585" xmlns:xlink="http://www.w3.org/1999/xlink" width="128" height="128"><defs><style type="text/css"></style></defs><path d="M512 64C264.576 64 64 264.576 64 512s200.576 448 448 448 448-200.576 448-448S759.424 64 512 64z m0 832c-212.077 0-384-171.923-384-384s171.923-384 384-384 384 171.923 384 384-171.923 384-384 384z" p-id="6586" fill="#000000"></path><path d="M576 224H384c-17.6 0-32 14.4-32 32v512c0 17.6 14.4 32 32 32s32-14.4 32-32V544h160c88 0 160-72 160-160s-72-160-160-160z m96 160c0 52.8-43.2 96-96 96H416V288h160c52.8 0 96 43.2 96 96z" p-id="6587" fill="#000000"></path></svg>